<?xml version="1.0" encoding="utf-8"?>
<!-- Generator: Adobe Illustrator 22.0.0, SVG Export Plug-In . SVG Version: 6.00 Build 0)  -->
<svg version="1.1" id="Layer_1" xmlns="http://www.w3.org/2000/svg" xmlns:xlink="http://www.w3.org/1999/xlink" x="0px" y="0px"
	 viewBox="0 0 95.6 95.6" style="enable-background:new 0 0 95.6 95.6;" xml:space="preserve">
<style type="text/css">
	.st0{fill:#EFB933;}
	.st1{fill:#FFFFFF;}
	.st2{fill-rule:evenodd;clip-rule:evenodd;fill:#008BC2;}
</style>
<g>
	<g>
		<path class="st0" d="M86.6,47.3V24.6c0-3.5-2.9-6.4-6.4-6.4H16.2c-3.5,0-6.4,2.9-6.4,6.4v40.6c0,3.5,2.9,6.4,6.4,6.4h64.1
			c3.5,0,6.4-2.9,6.4-6.4V52.2C86.9,50.6,86.9,48.9,86.6,47.3z M79.6,22.9c1.3,0,2.4,1.1,2.4,2.4c0,1.3-1.1,2.4-2.4,2.4
			c-1.3,0-2.4-1.1-2.4-2.4C77.2,24,78.3,22.9,79.6,22.9z M20.1,63.2H16c-0.9,0-1.7-0.7-1.7-1.7V28.3c0-0.9,0.7-1.7,1.7-1.7h4.1
			c2.5,5,4,11.4,4,18.3S22.6,58.2,20.1,63.2z"/>
		<path class="st1" d="M88.1,47.2V24.6c0-4.3-3.5-7.9-7.9-7.9H38.8c1.4-0.5,2.4-1.8,2.4-3.4c0-2-1.6-3.6-3.6-3.6H21.8
			c-2,0-3.6,1.6-3.6,3.6c0,1.6,1,2.9,2.4,3.4h-4.5c-4.3,0-7.9,3.5-7.9,7.9v40.6c0,4.3,3.5,7.9,7.9,7.9h64.1c4.3,0,7.9-3.5,7.9-7.9
			v-13C88.3,50.6,88.3,48.9,88.1,47.2z M19.1,61.8H16c-0.1,0-0.2-0.1-0.2-0.2V28.3c0-0.1,0.1-0.2,0.2-0.2h3.2
			c2.3,4.8,3.5,10.8,3.5,16.8C22.6,51,21.4,56.9,19.1,61.8z M79.6,26.2c-0.5,0-0.9-0.4-0.9-0.9c0-0.5,0.4-0.9,0.9-0.9
			c0.5,0,0.9,0.4,0.9,0.9C80.5,25.8,80.1,26.2,79.6,26.2z"/>
		<path class="st1" d="M21.8,15.5h15.8c1.1,0,2.1-0.9,2.1-2.1v0c0-1.1-0.9-2.1-2.1-2.1H21.8c-1.1,0-2.1,0.9-2.1,2.1v0
			C19.7,14.5,20.6,15.5,21.8,15.5z"/>
	</g>
	<path class="st2" d="M16.2,18.2h64.1c3.5,0,6.4,2.9,6.4,6.4v40.6c0,3.5-2.9,6.4-6.4,6.4H16.2c-3.5,0-6.4-2.9-6.4-6.4V24.6
		C9.8,21.1,12.6,18.2,16.2,18.2L16.2,18.2z M58.7,30.3c8.1,0,14.7,6.6,14.7,14.7c0,8.1-6.6,14.7-14.7,14.7C50.6,59.7,44,53.1,44,45
		C44,36.9,50.6,30.3,58.7,30.3L58.7,30.3z M58.7,32.4c7,0,12.6,5.7,12.6,12.6c0,7-5.7,12.6-12.6,12.6c-7,0-12.6-5.7-12.6-12.6
		C46.1,38,51.7,32.4,58.7,32.4L58.7,32.4z M63.7,37.6c-3.5-2.4-8.3-2-11.4,1.1c-2.9,2.9-3.4,7.4-1.4,10.9c-0.1-1,0.3-1.9,1-2.7
		c1.3-1.3,3.5-1.3,4.8,0c1.3,1.3,1.3,3.5,0,4.8c-0.7,0.7-1.7,1.1-2.7,1c3.4,2,7.9,1.6,10.9-1.4c3.1-3.1,3.4-7.9,1.1-11.4
		c0,0.6-0.2,1.2-0.7,1.6c-0.9,0.9-2.4,0.9-3.3,0c-0.9-0.9-0.9-2.4,0-3.3C62.6,37.8,63.2,37.6,63.7,37.6L63.7,37.6z M21.8,11.3h15.8
		c1.1,0,2.1,0.9,2.1,2.1v0c0,1.1-0.9,2.1-2.1,2.1H21.8c-1.1,0-2.1-0.9-2.1-2.1v0C19.7,12.3,20.6,11.3,21.8,11.3L21.8,11.3z
		 M79.6,22.9c1.3,0,2.4,1.1,2.4,2.4c0,1.3-1.1,2.4-2.4,2.4c-1.3,0-2.4-1.1-2.4-2.4C77.2,24,78.3,22.9,79.6,22.9L79.6,22.9z
		 M58.6,22.9c12.2,0,22.1,9.9,22.1,22.1c0,12.2-9.9,22.1-22.1,22.1c-12.2,0-22.1-9.9-22.1-22.1C36.5,32.8,46.4,22.9,58.6,22.9
		L58.6,22.9z M16,26.7h4.1c2.5,5,4,11.4,4,18.3s-1.5,13.3-4,18.3H16c-0.9,0-1.7-0.7-1.7-1.7V28.3C14.3,27.4,15.1,26.7,16,26.7
		L16,26.7z"/>
</g>
</svg>
